<svg xmlns="http://www.w3.org/2000/svg" version="1.1" xmlns:xlink="http://www.w3.org/1999/xlink" xmlns:svgjs="http://svgjs.dev/svgjs" width="1000" height="152" viewBox="0 0 1000 152"><g transform="matrix(1,0,0,1,0.3723252960809873,-0.5230864200984797)"><svg viewBox="0 0 380 58" data-background-color="#ffffff" preserveAspectRatio="xMidYMid meet" height="152" width="1000" xmlns="http://www.w3.org/2000/svg" xmlns:xlink="http://www.w3.org/1999/xlink"><g id="tight-bounds" transform="matrix(1,0,0,1,-0.14148353535446745,0.19960123443607358)"><svg viewBox="0 0 380.28296686056177 57.6008" height="57.6008" width="380.28296686056177"><g><svg viewBox="0 0 380.28296686056177 57.6008" height="57.6008" width="380.28296686056177"><g><svg viewBox="0 0 380.28296686056177 57.6008" height="57.6008" width="380.28296686056177"><g><svg viewBox="0 0 380.28296686056177 57.6008" height="57.6008" width="380.28296686056177" id="textblock"><g><svg viewBox="0 0 380.28296686056177 57.6008" height="57.6008" width="380.28296686056177"><g><svg><g></g><g></g></svg></g><g><svg><g><svg></svg></g><g></g></svg></g><g id="text-0"><svg viewBox="0 0 380.28296686056177 57.6008" height="57.6008" width="380.28296686056177"><g transform="matrix(1,0,0,1,0,0)"><svg width="307.6627" viewBox="1.2000000476837158 -35.099998474121094 190.13999938964844 35.599998474121094" height="57.6008" data-palette-color="#1e89d7"><path d="M5 0L1.2 0 10.7-34.6 19.1-34.6 28.6 0 24.8 0 22.3-8.9 7.5-8.9 5 0ZM16.2-31.3L13.6-31.3 8.35-12.35 21.45-12.35 16.2-31.3ZM37.9 0L34.05 0 34.05-34.6 41.25-34.6 54.5-3.4 55.55-3.4 55.55-34.6 59.35-34.6 59.35 0 52.3 0 38.85-31.2 37.9-31.2 37.9 0ZM70.4-17.15Q70.4-9.55 72.4-6.23 74.4-2.9 80.12-2.9 85.84-2.9 87.82-6.15 89.8-9.4 89.8-17.05 89.8-24.7 87.75-28.2 85.7-31.7 80.07-31.7 74.45-31.7 72.42-28.23 70.4-24.75 70.4-17.15ZM93.8-17.05Q93.8-7.8 90.84-3.65 87.9 0.5 80.12 0.5 72.34 0.5 69.4-3.75 66.45-8 66.45-17.13 66.45-26.25 69.45-30.68 72.45-35.1 80.09-35.1 87.75-35.1 90.77-30.7 93.8-26.3 93.8-17.05ZM121.59-3.85L121.74-0.55Q116.59 0.5 112.49 0.5 108.39 0.5 105.87-0.63 103.34-1.75 101.97-4.13 100.59-6.5 100.07-9.58 99.54-12.65 99.54-17.25 99.54-21.85 100.07-24.98 100.59-28.1 101.97-30.5 103.34-32.9 105.84-34 108.34-35.1 112.34-35.1 116.34-35.1 121.74-34L121.74-34 121.59-30.75Q116.54-31.65 112.59-31.65L112.59-31.65Q107.09-31.65 105.32-28.38 103.54-25.1 103.54-17.2L103.54-17.2Q103.54-13.25 103.87-10.85 104.19-8.45 105.14-6.53 106.09-4.6 107.92-3.78 109.74-2.95 113.27-2.95 116.79-2.95 121.59-3.85L121.59-3.85ZM128.79 0L124.99 0 134.49-34.6 142.89-34.6 152.39 0 148.59 0 146.09-8.9 131.29-8.9 128.79 0ZM139.99-31.3L137.39-31.3 132.14-12.35 145.24-12.35 139.99-31.3ZM161.69 0L157.84 0 157.84-34.6 164.79-34.6 174.59-5.35 184.39-34.6 191.34-34.6 191.34 0 187.49 0 187.49-30.5 186.79-30.5 176.74-1.25 172.44-1.25 162.39-30.5 161.69-30.5 161.69 0Z" opacity="1" transform="matrix(1,0,0,1,0,0)" fill="#1e89d7" class="undefined-text-0" data-fill-palette-color="primary"></path></svg></g><g><svg xmlns="http://www.w3.org/2000/svg" xmlns:xlink="http://www.w3.org/1999/xlink" version="1.1" x="321.26189999999997" y="0" viewBox="1.0427775382995605 2.200000762939453 97.95722198486328 95.60000610351562" enable-background="new 0 0 100 100" xml:space="preserve" height="57.6008" width="59.02106686056181" class="icon-s-0" data-fill-palette-color="accent" id="s-0"><path d="M57 50c0 3.2 2.2 5.9 5.1 6.7-2.3 3.7-6.3 6.2-11 6.2-7.2 0-13-5.8-13-13 0-7.2 5.8-13 13-13 4.7 0 8.8 2.5 11 6.2C59.2 44.1 57 46.8 57 50zM99 50c0 26.4-21.4 47.8-47.8 47.8-11.2 0-21.6-3.9-29.7-10.4-7.2 2.1-14.1 1.8-18.7 1.1C0.9 88.4 0.4 86 2 85c4-2.6 6.8-5.9 8.8-9.3C6 68.3 3.3 59.5 3.3 50c0-26.4 21.4-47.8 47.8-47.8S99 23.6 99 50zM80 50c0-15.9-12.9-28.9-28.9-28.9-15.9 0-28.9 12.9-28.9 28.9 0 15.9 12.9 28.9 28.9 28.9C67.1 78.9 80 65.9 80 50z" fill="#1ebfd7" data-fill-palette-color="accent"></path></svg></g></svg></g></svg></g></svg></g></svg></g><g></g></svg></g><defs></defs></svg><rect width="380.28296686056177" height="57.6008" fill="none" stroke="none" visibility="hidden"></rect></g></svg></g></svg>